{
	"asset":{
		"generator":"Khronos glTF Blender I/O v4.2.69",
		"version":"2.0"
	},
	"scene":0,
	"scenes":[
		{
			"name":"Scene",
			"nodes":[
				0
			]
		}
	],
	"nodes":[
		{
			"mesh":0,
			"name":"Text",
			"rotation":[
				0.5477479696273804,
				0,
				0,
				0.836643397808075
			],
			"translation":[
				-0.9884422421455383,
				1.2572860717773438,
				0.6882233619689941
			]
		}
	],
	"meshes":[
		{
			"name":"Text",
			"primitives":[
				{
					"attributes":{
						"POSITION":0,
						"NORMAL":1,
						"TEXCOORD_0":2
					},
					"indices":3
				}
			]
		}
	],
	"accessors":[
		{
			"bufferView":0,
			"componentType":5126,
			"count":3424,
			"max":[
				3.0409998893737793,
				0.11999999731779099,
				0.009000000543892384
			],
			"min":[
				0.07500000298023224,
				-0.11999999731779099,
				-0.6910000443458557
			],
			"type":"VEC3"
		},
		{
			"bufferView":1,
			"componentType":5126,
			"count":3424,
			"type":"VEC3"
		},
		{
			"bufferView":2,
			"componentType":5126,
			"count":3424,
			"type":"VEC2"
		},
		{
			"bufferView":3,
			"componentType":5123,
			"count":10032,
			"type":"SCALAR"
		}
	],
	"bufferViews":[
		{
			"buffer":0,
			"byteLength":41088,
			"byteOffset":0,
			"target":34962
		},
		{
			"buffer":0,
			"byteLength":41088,
			"byteOffset":41088,
			"target":34962
		},
		{
			"buffer":0,
			"byteLength":27392,
			"byteOffset":82176,
			"target":34962
		},
		{
			"buffer":0,
			"byteLength":20064,
			"byteOffset":109568,
			"target":34963
		}
	],
	"buffers":[
		{
			"byteLength":129632,
			"uri":"untitled.bin"
		}
	]
}
